<?xml version="1.0" standalone="no"?><!DOCTYPE svg PUBLIC "-//W3C//DTD SVG 1.1//EN" "http://www.w3.org/Graphics/SVG/1.1/DTD/svg11.dtd"><svg t="1709695420196" class="icon" viewBox="0 0 1024 1024" version="1.1" xmlns="http://www.w3.org/2000/svg" p-id="2292" xmlns:xlink="http://www.w3.org/1999/xlink" width="200" height="200"><path d="M213.888 345.194667a84.864 84.864 0 0 0-84.864 84.650666v192.32a84.864 84.864 0 0 0 84.864 84.650667h90.816l192.704 119.957333c16.96 10.581333 32.298667 13.568 42.026667 8.149334 9.685333-5.354667 15.232-19.818667 15.232-39.658667V256.362667c0-19.84-5.461333-34.218667-14.976-39.445334-9.557333-5.248-24.725333-2.069333-41.6 8.64l-188.266667 119.637334h-95.936z m314.410667 536.170666c-16.981333 0-35.370667-5.888-53.973334-17.493333l-182.122666-113.344h-78.293334C142.976 750.528 85.333333 692.949333 85.333333 622.165333v-192.32c0-70.784 57.664-128.362667 128.554667-128.362666h83.221333l177.536-112.810667c31.168-19.861333 61.781333-23.424 86.101334-10.069333 24.256 13.333333 37.610667 40.938667 37.610666 77.76v538.901333c0 36.714667-13.376 64.384-37.696 77.888a65.92 65.92 0 0 1-32.362666 8.213333zM810.709333 823.658667a21.333333 21.333333 0 0 1-15.637333-35.84 383.296 383.296 0 0 0 102.442667-261.333334c0-96.704-36.053333-189.141333-101.482667-260.266666a21.333333 21.333333 0 1 1 31.381333-28.864 425.792 425.792 0 0 1 112.768 289.152c0 108.053333-40.426667 211.157333-113.834666 290.325333a21.205333 21.205333 0 0 1-15.637334 6.826667" fill="#666666" p-id="2293"></path><path d="M731.797333 696.746667a21.333333 21.333333 0 0 1-18.858666-31.253334 299.178667 299.178667 0 0 0 0-278.016 21.333333 21.333333 0 1 1 37.76-19.861333 342.165333 342.165333 0 0 1 39.146666 158.890667c0 55.317333-13.546667 110.250667-39.146666 158.869333a21.333333 21.333333 0 0 1-18.901334 11.370667" fill="#666666" p-id="2294"></path></svg>