<?xml version="1.0" standalone="no"?><!DOCTYPE svg PUBLIC "-//W3C//DTD SVG 1.1//EN" "http://www.w3.org/Graphics/SVG/1.1/DTD/svg11.dtd"><svg t="1709716218895" class="icon" viewBox="0 0 1024 1024" version="1.1" xmlns="http://www.w3.org/2000/svg" p-id="2303" xmlns:xlink="http://www.w3.org/1999/xlink" width="8" height="8"><path d="M766.8 940.7c-5.5 0-11-1.3-16.2-4L511.3 810.6 272 936.7c-11.8 6.2-25.7 5.2-36.5-2.6-10.7-7.8-16-20.8-13.8-33.9L267.4 633 73.8 443.8c-9.5-9.3-12.8-22.9-8.7-35.5 4.1-12.6 14.8-21.6 27.9-23.5l267.6-39 119.7-243c5.9-11.9 17.8-19.3 31.1-19.3s25.2 7.4 31.1 19.3l119.7 243 267.6 39c13.1 1.9 23.8 10.9 27.9 23.5 4.1 12.6 0.8 26.2-8.7 35.5L755.2 633.1l45.7 267.2c2.2 13.1-3 26.1-13.8 33.8-6 4.4-13.1 6.6-20.3 6.6z m-654-516.8l186.3 182c8.1 7.9 11.8 19.4 9.9 30.6l-44 256.9 230.1-121.3c10.1-5.3 22.2-5.3 32.3 0l230.2 121.3-44-256.9c-1.9-11.2 1.8-22.7 9.9-30.6l186.3-182-257.4-37.5c-11.3-1.7-21-8.7-26.1-19l-115-233.6-115 233.7c-5 10.2-14.8 17.3-26 19l-257.5 37.4z m392.3-302.7z" fill="#4F4F4F" p-id="2304"></path></svg>